<svg width="866" height="904" viewBox="0 0 866 904" fill="none" xmlns="http://www.w3.org/2000/svg">
<circle cx="433" cy="480.769" r="433" fill="#060941"/>
<circle cx="433.489" cy="484.878" r="402.869" fill="#5863AF"/>
<mask id="mask0_160_26" style="mask-type:alpha" maskUnits="userSpaceOnUse" x="0" y="55" width="866" height="866">
<circle cx="433" cy="488" r="433" fill="#060941"/>
</mask>
<g mask="url(#mask0_160_26)">
<path d="M326.83 228.2C359.469 228.2 391.79 246.107 421.945 280.899C452.1 315.691 479.499 366.687 502.579 430.973C525.658 495.26 543.966 571.58 556.457 655.575C568.947 739.57 575.376 829.595 575.376 920.51H78.2827C78.2827 829.595 84.712 739.57 97.2026 655.575C109.693 571.58 128.001 495.26 151.081 430.973C174.16 366.687 201.559 315.691 231.714 280.899C261.869 246.107 294.19 228.2 326.83 228.2Z" fill="#331894"/>
<path d="M309.216 589.278C343.269 589.278 376.989 601.136 408.45 624.174C439.911 647.213 468.497 680.982 492.576 723.552C516.655 766.123 535.757 816.661 548.788 872.282C561.82 927.902 568.526 987.516 568.526 1047.72H49.9053C49.9053 987.516 56.613 927.902 69.6445 872.282C82.6761 816.661 101.776 766.123 125.855 723.552C149.935 680.982 178.521 647.213 209.982 624.174C241.443 601.136 275.163 589.278 309.216 589.278Z" fill="#979FD7"/>
<rect x="222.581" y="772.296" width="465" height="244" rx="22" transform="rotate(-15.0447 222.581 772.296)" fill="#52514F"/>
<circle cx="599.957" cy="802.888" r="80.5" transform="rotate(-15.0447 599.957 802.888)" fill="#2B2929"/>
<circle cx="600.569" cy="803.241" r="70" transform="rotate(-15.0447 600.569 803.241)" fill="#7C7474"/>
<rect x="260.855" y="810.677" width="236" height="10" rx="5" transform="rotate(-15.0447 260.855 810.677)" fill="#2D2A2A"/>
<rect x="265.268" y="827.094" width="236" height="11" rx="5.5" transform="rotate(-15.0447 265.268 827.094)" fill="#2D2A2A"/>
<rect x="269.94" y="844.477" width="236" height="10" rx="5" transform="rotate(-15.0447 269.94 844.477)" fill="#2D2A2A"/>
<rect x="274.353" y="860.894" width="236" height="11" rx="5.5" transform="rotate(-15.0447 274.353 860.894)" fill="#2D2A2A"/>
<rect x="279.025" y="878.277" width="236" height="10" rx="5" transform="rotate(-15.0447 279.025 878.277)" fill="#2D2A2A"/>
<rect x="283.438" y="894.695" width="236" height="55" transform="rotate(-15.0447 283.438 894.695)" fill="#D9D9D9"/>
<rect x="515.761" y="849.853" width="5" height="17" transform="rotate(164.955 515.761 849.853)" fill="#090909"/>
<rect x="456.852" y="865.687" width="5" height="17" transform="rotate(164.955 456.852 865.687)" fill="#090909"/>
<rect x="397.943" y="881.521" width="5" height="17" transform="rotate(164.955 397.943 881.521)" fill="#090909"/>
<rect x="468.949" y="891.429" width="5" height="10" transform="rotate(-15.0447 468.949 891.429)" fill="#090909"/>
<rect x="340" y="897.095" width="5" height="17" transform="rotate(164.955 340 897.095)" fill="#090909"/>
<rect x="504.173" y="852.968" width="5" height="17" transform="rotate(164.955 504.173 852.968)" fill="#090909"/>
<rect x="445.264" y="868.802" width="5" height="17" transform="rotate(164.955 445.264 868.802)" fill="#090909"/>
<rect x="422.594" y="903.889" width="5" height="10" transform="rotate(-15.0447 422.594 903.889)" fill="#090909"/>
<rect x="386.354" y="884.636" width="5" height="17" transform="rotate(164.955 386.354 884.636)" fill="#090909"/>
<rect x="480.538" y="888.314" width="5" height="10" transform="rotate(-15.0447 480.538 888.314)" fill="#090909"/>
<rect x="328.411" y="900.21" width="6" height="17" transform="rotate(164.955 328.411 900.21)" fill="#090909"/>
<rect x="492.584" y="856.083" width="5" height="17" transform="rotate(164.955 492.584 856.083)" fill="#090909"/>
<rect x="433.675" y="871.917" width="5" height="17" transform="rotate(164.955 433.675 871.917)" fill="#090909"/>
<rect x="434.183" y="900.774" width="5" height="10" transform="rotate(-15.0447 434.183 900.774)" fill="#090909"/>
<rect x="374.766" y="887.75" width="5" height="17" transform="rotate(164.955 374.766 887.75)" fill="#090909"/>
<rect x="492.126" y="885.2" width="5" height="10" transform="rotate(-15.0447 492.126 885.2)" fill="#090909"/>
<rect x="315.856" y="903.584" width="5" height="17" transform="rotate(164.955 315.856 903.584)" fill="#090909"/>
<rect x="480.995" y="859.198" width="6" height="17" transform="rotate(164.955 480.995 859.198)" fill="#090909"/>
<rect x="422.086" y="875.031" width="5" height="17" transform="rotate(164.955 422.086 875.031)" fill="#090909"/>
<rect x="445.771" y="897.659" width="5" height="10" transform="rotate(-15.0447 445.771 897.659)" fill="#090909"/>
<rect x="363.177" y="890.865" width="5" height="17" transform="rotate(164.955 363.177 890.865)" fill="#090909"/>
<rect x="503.715" y="882.085" width="5" height="10" transform="rotate(-15.0447 503.715 882.085)" fill="#090909"/>
<rect x="304.268" y="906.699" width="5" height="17" transform="rotate(164.955 304.268 906.699)" fill="#090909"/>
<rect x="470.518" y="870.298" width="5" height="25" transform="rotate(164.955 470.518 870.298)" fill="#090909"/>
<rect x="398.119" y="905.29" width="5" height="15" transform="rotate(-15.0447 398.119 905.29)" fill="#090909"/>
<rect x="412.574" y="885.872" width="5" height="25" transform="rotate(164.955 412.574 885.872)" fill="#090909"/>
<rect x="456.062" y="889.716" width="5" height="15" transform="rotate(-15.0447 456.062 889.716)" fill="#090909"/>
<rect x="353.665" y="901.706" width="5" height="25" transform="rotate(164.955 353.665 901.706)" fill="#090909"/>
<rect x="514.006" y="874.141" width="5" height="15" transform="rotate(-15.0447 514.006 874.141)" fill="#090909"/>
<rect x="294.756" y="917.54" width="5" height="25" transform="rotate(164.955 294.756 917.54)" fill="#090909"/>
<path d="M398.727 870.955L413.278 916.748L409.096 917.872L398.727 870.955Z" fill="#FF0505"/>
<line x1="245.578" y1="763.096" x2="394.593" y2="643.31" stroke="#837E7E" stroke-width="2"/>
<line x1="421.206" y1="680.683" x2="570.221" y2="560.897" stroke="#7D7878" stroke-width="2"/>
<line x1="393.824" y1="643.037" x2="422.628" y2="680.857" stroke="#7D7878" stroke-width="2"/>
<path d="M243.682 758.341L250.841 764.959L240.805 767.657L243.682 758.341Z" fill="#353433"/>
<rect x="567.803" y="558.056" width="7" height="7" transform="rotate(-37.8515 567.803 558.056)" fill="#D9D9D9"/>
<line x1="689.884" y1="680.525" x2="722.325" y2="635.563" stroke="#706767" stroke-width="6"/>
<line x1="721.324" y1="635.398" x2="687.49" y2="593.682" stroke="#706767" stroke-width="6"/>
<line x1="691.646" y1="577.577" x2="700.549" y2="560.616" stroke="#706767" stroke-width="4"/>
<path d="M678.284 676.285L703.4 682.924L685.09 701.356L678.284 676.285Z" fill="#2C2929"/>
<circle cx="721.694" cy="635.553" r="6.5" transform="rotate(-15.0447 721.694 635.553)" fill="#968D8D"/>
<circle cx="687.21" cy="592.012" r="6.5" transform="rotate(-15.0447 687.21 592.012)" fill="#968D8D"/>
<path d="M716.104 581.064C714.629 583.775 712.635 586.169 710.235 588.109C707.835 590.049 705.077 591.498 702.117 592.372C699.157 593.246 696.054 593.529 692.985 593.204C689.916 592.879 686.942 591.952 684.231 590.478C681.52 589.003 679.126 587.009 677.186 584.609C675.245 582.209 673.797 579.451 672.923 576.491C672.049 573.531 671.766 570.428 672.091 567.359C672.416 564.291 673.342 561.316 674.817 558.605L695.46 569.834L716.104 581.064Z" fill="#AEA4A4"/>
</g>
<path d="M440.557 476.171L333.482 511.055L335.834 434.759L440.557 476.171Z" fill="#EDAB41"/>
<ellipse cx="442" cy="408.269" rx="25" ry="22.5" fill="black"/>
<ellipse cx="233" cy="431.269" rx="25" ry="22.5" fill="black"/>
<rect x="460.668" y="274.899" width="38" height="297.895" rx="19" transform="rotate(80 460.668 274.899)" fill="#A81C1C"/>
<path d="M432.881 215.258C428.522 190.537 410.649 169.243 383.194 156.06C355.74 142.877 320.952 138.885 286.483 144.963C252.015 151.04 220.69 166.69 199.4 188.468C178.11 210.246 168.598 236.369 172.957 261.09L302.919 238.174L432.881 215.258Z" fill="#F53D3D"/>
<rect x="172.749" y="259.91" width="263.934" height="64.6967" transform="rotate(-10 172.749 259.91)" fill="#F53D3D"/>
<path d="M136.987 245.045C117.953 244.64 99.6339 247.268 86.0603 252.349C72.4868 257.431 64.7705 264.551 64.609 272.143C64.4475 279.735 71.854 287.177 85.1991 292.832C98.5443 298.486 116.735 301.89 135.769 302.295L136.378 273.67L136.987 245.045Z" fill="#F53D3D"/>
<rect x="134.861" y="302.276" width="57.2632" height="49.0687" transform="rotate(-88.7813 134.861 302.276)" fill="#F53D3D"/>
<path d="M187.973 109.339C169.303 88.7549 149.152 71.0509 131.953 60.1214C114.754 49.1918 101.916 45.9321 96.2633 51.0593C90.6106 56.1865 92.6061 69.2806 101.811 87.461C111.016 105.641 126.676 127.419 145.346 148.003L166.659 128.671L187.973 109.339Z" fill="#F53D3D"/>
<rect x="144.455" y="147.02" width="57.5499" height="71.6228" transform="rotate(-42.209 144.455 147.02)" fill="#F53D3D"/>
<path d="M302.845 92.0516C299.558 67.638 293.558 44.6078 286.163 28.0274C278.768 11.447 270.586 2.67461 263.415 3.64003C256.244 4.60545 250.673 15.2296 247.927 33.1753C245.181 51.121 245.484 74.9182 248.771 99.3319L275.808 95.6918L302.845 92.0516Z" fill="#F53D3D"/>
<rect x="248.615" y="98.1669" width="54.562" height="63.4891" transform="rotate(-7.66789 248.615 98.1669)" fill="#F53D3D"/>
<path d="M405.064 111.571C412.063 89.777 416.105 68.0185 416.302 51.0821C416.499 34.1456 412.835 23.4184 406.115 21.2604C399.394 19.1023 390.169 25.6903 380.469 39.5748C370.768 53.4594 361.387 73.5033 354.388 95.297L379.726 103.434L405.064 111.571Z" fill="#F53D3D"/>
<rect x="354.723" y="94.257" width="53.2253" height="58.9944" transform="rotate(17.8033 354.723 94.257)" fill="#F53D3D"/>
<path d="M462.315 195.261C475.834 185.194 487.517 173.816 494.794 163.632C502.07 153.449 504.345 145.292 501.117 140.958C497.889 136.624 489.423 136.466 477.581 140.52C465.74 144.574 451.492 152.508 437.973 162.575L450.144 178.918L462.315 195.261Z" fill="#F53D3D"/>
<rect x="438.619" y="162.095" width="40.754" height="43.4427" transform="rotate(53.3245 438.619 162.095)" fill="#F53D3D"/>
</svg>
